<svg width="111" height="98" viewBox="0 0 111 98" fill="none" xmlns="http://www.w3.org/2000/svg">
<g clip-path="url(#clip0_1_11)">
<path d="M82.8758 59.4631L74.8309 63.6496L74.8404 57.4586L71.2379 57.4551L71.2245 65.5232L58.9494 71.9092L58.5306 72.1281V58.9201L66.2809 54.8781L64.4767 52.0672L58.5306 55.1695V46.7996H54.9279V55.1695L48.9816 52.0672L47.1776 54.8781L54.9279 58.9201V72.1281L42.2338 65.5232L42.2205 57.4551L38.618 57.4586L38.6256 63.6478L30.5824 59.4631L28.7783 62.276L36.8234 66.4592L30.8695 69.5478L32.6698 72.3607L40.4296 68.3359L53.1239 74.9392L40.4317 81.5424L32.6698 77.516L30.8695 80.3289L36.8271 83.4178L28.7783 87.6027L30.5824 90.4137L38.6256 86.2287L38.618 92.4183L42.2205 92.4217L42.2299 84.3535L54.9279 77.7504V78.1847V90.9568L47.1776 94.9986L48.9816 97.808L54.9279 94.7074V103.077H58.5306V94.7074L64.4767 97.808L66.2809 94.9986L58.5306 90.9568V78.1847V77.7504L58.9494 77.9676L71.2245 84.3535L71.2379 92.4217L74.8404 92.4183L74.8326 86.2287L82.8758 90.4137L84.68 87.6027L76.6312 83.4178L82.589 80.3289L80.7887 77.516L73.0267 81.5424L60.7499 75.1564L60.3328 74.9392L60.7499 74.7203L73.0287 68.3359L80.7887 72.3607L82.589 69.5478L76.6331 66.4607L84.68 62.276L82.8758 59.4631Z" fill="black"/>
<path d="M104.382 43.4318C100.944 40.3326 96.3792 38.2283 91.3016 37.6422C90.8576 30.465 87.4409 23.9808 82.1469 19.217C76.4686 14.0961 68.5919 10.9213 59.9214 10.923C51.7997 10.9213 44.3709 13.7084 38.7977 18.2691C34.0052 22.1867 30.5634 27.4334 29.1744 33.3609C27.8293 33.1594 26.4518 33.0473 25.0496 33.0473C18.1409 33.0439 11.862 35.5758 7.33727 39.6555C2.8086 43.7299 -0.00195016 49.3887 1.01526e-06 55.6125C-0.00195016 61.8348 2.8086 67.4949 7.33706 71.5695C11.7508 75.5494 17.8385 78.0363 24.5483 78.1555V72.8469C19.4534 72.7264 14.8692 70.8424 11.5058 67.8141C8.03341 64.682 5.89622 60.3869 5.89449 55.6127C5.89622 50.8383 8.03341 46.5412 11.5058 43.4096C14.9802 40.283 19.7517 38.3558 25.0494 38.3558C27.0276 38.3558 28.9255 38.6248 30.7143 39.123L34.1503 40.0797L34.5175 36.8582C35.1775 31.0668 38.2196 25.9133 42.7595 22.2008C47.3036 18.4881 53.3032 16.2336 59.9209 16.232C66.9807 16.2336 73.3478 18.8035 77.9797 22.9713C82.6057 27.1424 85.4583 32.8785 85.46 39.2422C85.46 39.4662 85.4488 39.7283 85.437 40.0332L85.3243 42.8892L88.4351 42.7822C93.0421 42.7891 97.1881 44.4646 100.215 47.1877C103.241 49.918 105.103 53.6615 105.105 57.8258C105.103 61.9883 103.241 65.732 100.215 68.4621C97.4675 70.9338 93.7922 72.5299 89.6884 72.8109V78.1195C95.4088 77.8301 100.586 75.641 104.382 72.218C108.466 68.5416 111.002 63.4379 111 57.8258C111.002 52.2117 108.467 47.1064 104.382 43.4318Z" fill="black"/>
</g>
<defs>
<clipPath id="clip0_1_11">
<rect width="111" height="96.6292" fill="white" transform="translate(0 0.561798)"/>
</clipPath>
</defs>
</svg>
