<svg width="50" height="50" viewBox="0 0 50 50" fill="none" xmlns="http://www.w3.org/2000/svg">
<g id="wind-svgrepo-com 1">
<g id="SVGRepo_iconCarrier">
<path id="Vector" fill-rule="evenodd" clip-rule="evenodd" d="M13.4167 7.77083C13.4167 4.03142 16.4481 1 20.1875 1C23.9269 1 26.9583 4.0314 26.9583 7.77083C26.9583 11.5103 23.9269 14.5417 20.1875 14.5417H6.64584C5.78291 14.5417 5.08334 13.8421 5.08334 12.9792C5.08334 12.1162 5.78291 11.4167 6.64584 11.4167H20.1875C22.2011 11.4167 23.8333 9.78437 23.8333 7.77083C23.8333 5.75729 22.2011 4.125 20.1875 4.125C18.174 4.125 16.5417 5.75729 16.5417 7.77083V8.51487C16.5417 9.37783 15.8421 10.0774 14.9792 10.0774C14.1162 10.0774 13.4167 9.37783 13.4167 8.51487V7.77083Z" fill="#1C274C"/>
<path id="Vector_2" opacity="0.4" d="M7.16669 25.4792C7.16669 24.6162 7.86625 23.9167 8.72919 23.9167H38.9375C43.8275 23.9167 47.7917 27.8808 47.7917 32.7708C47.7917 37.6608 43.8275 41.625 38.9375 41.625C34.0475 41.625 30.0834 37.6608 30.0834 32.7708V31.7292C30.0834 30.8662 30.7829 30.1667 31.6459 30.1667C32.5088 30.1667 33.2084 30.8662 33.2084 31.7292V32.7708C33.2084 35.935 35.7734 38.5 38.9375 38.5C42.1017 38.5 44.6667 35.935 44.6667 32.7708C44.6667 29.6067 42.1017 27.0417 38.9375 27.0417H8.72919C7.86625 27.0417 7.16669 26.3421 7.16669 25.4792Z" fill="#1C274C"/>
<path id="Vector_3" opacity="0.7" d="M30.0833 11.9375C30.0833 7.04749 34.0475 3.08334 38.9375 3.08334C43.8275 3.08334 47.7917 7.04749 47.7917 11.9375C47.7917 16.8275 43.8275 20.7917 38.9375 20.7917H4.5625C3.69956 20.7917 3 20.0921 3 19.2292C3 18.3663 3.69956 17.6667 4.5625 17.6667H38.9375C42.1017 17.6667 44.6667 15.1016 44.6667 11.9375C44.6667 8.77338 42.1017 6.20834 38.9375 6.20834C35.7733 6.20834 33.2083 8.77338 33.2083 11.9375V12.9792C33.2083 13.8421 32.5087 14.5417 31.6458 14.5417C30.7829 14.5417 30.0833 13.8421 30.0833 12.9792V11.9375Z" fill="#1C274C"/>
</g>
</g>
</svg>
